<svg  viewBox="0 0 93 93" fill="none" xmlns="http://www.w3.org/2000/svg">
<path d="M46.2075 92.6652C40.4005 92.6652 34.7346 91.5885 29.3584 89.4647C23.841 87.2815 18.8583 84.0884 14.5439 79.9745C10.2295 75.8607 6.80622 71.0265 4.37056 65.6205C1.8458 60.014 0.494301 54.0363 0.345785 47.8432C0.197269 41.65 1.27401 35.6129 3.53888 29.895C5.72206 24.3777 8.91515 19.395 13.029 15.0806C17.1429 10.7662 21.9771 7.34289 27.3831 4.90723C32.9896 2.38246 38.9673 1.03097 45.1604 0.882455C51.3535 0.741365 57.3907 1.81068 63.1086 4.07554C68.6259 6.25873 73.6087 9.45182 77.923 13.5657C82.2374 17.6796 85.6607 22.5138 88.0964 27.9198C90.6211 33.5262 91.9726 39.504 92.1212 45.6971C92.2622 51.8902 91.1929 57.9274 88.9281 63.6452C86.7449 69.1626 83.5518 74.1453 79.4379 78.4597C75.324 82.7741 70.4898 86.1974 65.0838 88.633C59.4774 91.1578 53.4996 92.5093 47.3065 92.6578C46.9426 92.6652 46.5788 92.6652 46.2075 92.6652ZM46.2669 5.24882C45.9327 5.24882 45.606 5.25625 45.2718 5.26367C34.1851 5.52357 23.8633 10.083 16.2073 18.1029C8.55129 26.1227 4.47453 36.6451 4.73443 47.7318C4.99433 58.8185 9.55377 69.1403 17.5736 76.7963C25.5935 84.4523 36.1233 88.5291 47.21 88.2691C70.0963 87.7345 88.282 68.6799 87.7548 45.7936C87.4949 34.7069 82.9355 24.3851 74.9156 16.7291C67.1259 9.3033 56.9897 5.24882 46.2669 5.24882Z" fill="#2A95BF"/>
<path d="M74.1952 71.4795C70.9056 71.4795 67.7347 71.0711 64.653 70.2617C59.1505 68.8062 54.3015 65.8656 50.6257 61.7666C46.8608 57.571 44.6108 52.4472 44.1059 46.9595L43.9871 45.6823L45.0489 44.9546C49.6158 41.8283 52.7272 37.2837 54.0416 31.8109C56.1505 22.848 53.0242 12.9048 45.4574 4.5434L48.7099 1.60278C52.6158 5.91717 55.5861 10.8405 57.3015 15.8306C59.2693 21.5633 59.6035 27.2738 58.304 32.8134V32.8208C57.5243 36.0659 56.2025 39.0659 54.3609 41.7541C52.7792 44.056 50.8559 46.0833 48.6208 47.7764C49.9277 56.4868 56.5367 63.571 65.7743 66.0215C71.366 67.4919 77.314 67.4473 83.9527 65.8805L84.9552 70.1429C81.1977 71.034 77.6259 71.4721 74.1952 71.4795Z" fill="#2A95BF"/>
<path d="M11.3806 70.4474L7.08105 69.6083C8.02413 64.7666 10.1776 59.9919 13.2964 55.8037C16.4079 51.623 20.3509 48.1997 24.695 45.9126C28.1852 44.071 31.8164 43.0091 35.4921 42.7492C39.4649 42.467 43.3783 43.1427 47.1061 44.7541L45.3685 48.7789C37.7719 45.4967 31.0441 47.5165 26.7371 49.7888C19.0737 53.8285 13.044 61.9374 11.3806 70.4474Z" fill="#2A95BF"/>
</svg>
